<svg xmlns="http://www.w3.org/2000/svg" xmlns:xlink="http://www.w3.org/1999/xlink" viewBox="0 0 304 214"><defs><style>.cls-1{fill:url(#Dégradé_sans_nom_67);}.cls-2{fill:url(#Dégradé_sans_nom_67-2);}.cls-3{fill:url(#Dégradé_sans_nom_67-3);}</style><linearGradient id="Dégradé_sans_nom_67" x1="154.52" y1="136.22" x2="66.03" y2="31.22" gradientUnits="userSpaceOnUse"><stop offset="0" stop-color="#f7b000"/><stop offset="0.01" stop-color="#f7af01"/><stop offset="0.99" stop-color="#e4734f"/></linearGradient><linearGradient id="Dégradé_sans_nom_67-2" x1="102.94" y1="44.58" x2="5.45" y2="188.58" xlink:href="#Dégradé_sans_nom_67"/><linearGradient id="Dégradé_sans_nom_67-3" x1="214.11" y1="90.1" x2="327.14" y2="165.79" xlink:href="#Dégradé_sans_nom_67"/></defs><title>Fichier 1@7xle</title><g id="Calque_2" data-name="Calque 2"><g id="Calque_1-2" data-name="Calque 1"><g id="logotype"><path class="cls-1" d="M300,129.54h0l0,0a62.11,62.11,0,0,0-6.89-13.24L247.6,28.85h0A45.08,45.08,0,0,0,166.25,23h0l-.42.77c-.15.27-.3.53-.44.8L161,32.6,122.3,103.48h0l-3.17,5.81L118,111.38l-3.22,5.89,0,0L102,140.41c-7.41,13.51-15.38,28-15.71,28.45h0a29.49,29.49,0,0,1-21.61,12c-.73.05-1.47.09-2.22.09a29.5,29.5,0,0,1-24.72-45.6l.25-.47L62.14,89h0l2.81-5.32,20-37.94,2.89-5.47h0l.19-.36a13,13,0,0,1,22.5-.78h0l0,.08h0l.92,1.73a.08.08,0,0,1,0,0l6.7,12.5,5.43,10.14,7.68-12.85L143.11,31S139,23.26,138,21.64h0a45,45,0,0,0-2.7-3.85,44.92,44.92,0,0,0-75.06,5.33h0l-.26.49q-.39.7-.75,1.41L8,120.91H8a62.5,62.5,0,0,0,108.14,62.66h0l.09-.15.31-.55.62-1.09c.52-.93,1-1.87,1.49-2.83l24.69-45.53,25.35-46.76,25.55-47.12a13,13,0,0,1,22.52,0h0l.12.22c.15.27.29.55.43.83l20.16,39h0l4.9,9.46h0l1.14,2.22,0,.08,23.67,45.78c.34.59.65,1.2.95,1.82v0h0a29.5,29.5,0,0,1-51.59,28.38h0l0-.09h0l-1.86-3.45c0-.09-.09-.17-.13-.26l-25-46.72-.09.14-8.52-15.81-18.67,34.43L186,180.15c.29.56.58,1.12.89,1.67l.16.31h0a62.5,62.5,0,0,0,113-52.58Z"/><path class="cls-2" d="M38,134.93,62.14,89h0l2.81-5.32,20-37.94A45.52,45.52,0,0,1,127,17a44.7,44.7,0,0,1,8.24.78,44.92,44.92,0,0,0-75.06,5.33h0l-.26.49q-.39.7-.75,1.41L8,120.91H8a62.5,62.5,0,0,0,39,91.14,62.5,62.5,0,0,1-9-77.13Z"/><path class="cls-3" d="M275.33,167.83a62.21,62.21,0,0,0-9.36-32.9L241.86,89h0l-2.81-5.32-20-37.94A45.52,45.52,0,0,0,177,17a33.46,33.46,0,0,0-7.12.58C178.21,6.76,190,0,204.5,0c16.78,0,32.28,9,40.17,22.84L296,120.91h0a62.5,62.5,0,0,1-39,91.14A62.3,62.3,0,0,0,275.33,167.83Z"/></g></g></g></svg>