<svg xmlns="http://www.w3.org/2000/svg" viewBox="0 0 1260.36 887.23"><defs><style>.cls-1{fill:#f9f9f9;}</style></defs><title>Fichier 1@5xle</title><g id="Calque_2" data-name="Calque 2"><g id="Calque_1-2" data-name="Calque 1"><path class="cls-1" d="M1243.87,537.07h0l-.12-.21A258.24,258.24,0,0,0,1215.2,482L1026.52,119.6h0C998.32,49.43,930.81,0,852,0,782.62,0,722,38.29,689.26,95.3l0,0-1.75,3.2c-.61,1.11-1.22,2.2-1.81,3.32l-18.21,33.36L507.06,429h0l-13.15,24.09-4.71,8.63-13.33,24.42-.14-.21S450.28,532.47,423,582.13c-30.73,56-63.74,116-65.13,117.94h0a122.07,122.07,0,0,1-89.58,50c-3,.23-6.11.38-9.21.38a122.29,122.29,0,0,1-102.47-189l1-2L257.61,369h-.06L269.19,347l83-157.28,12-22.68h0l.79-1.49a54,54,0,0,1,93.29-3.23h0l.19.36h0l3.81,7.17.1.18,27.75,51.82,22.52,42.06,31.82-53.27,48.91-81.88s-17.26-32.28-21.42-39l0-.06h0a193.3,193.3,0,0,0-11.17-16C526.19,28.86,472.69,0,412.52,0c-69.58,0-130.31,38.52-163,95.81l0,0-1.08,2q-1.6,2.89-3.12,5.84L33.1,501.29l0,0A258,258,0,0,0,0,628.11C0,749,82.86,850.62,194.89,879.19A259.39,259.39,0,0,0,481.5,761.12h0l.36-.66c.44-.75.85-1.53,1.29-2.28.87-1.49,1.73-3,2.57-4.51,2.14-3.86,4.23-7.76,6.18-11.74L594.27,553.18,699.36,359.34,805.28,164a53.9,53.9,0,0,1,93.41,0h.07l.47.91c.64,1.12,1.23,2.28,1.79,3.45l83.59,161.51h0l20.31,39.23h0l4.76,9.21.16.31L1108,568.39c1.38,2.47,2.69,5,3.91,7.56l0,.11h0A122.3,122.3,0,0,1,898.06,693.73l0,0-.22-.4v0L890.08,679c-.16-.36-.36-.7-.52-1.06L785.73,484.24c-.13.19-.25.38-.37.57L750,419.28,672.62,562,771,746.88c1.2,2.32,2.41,4.64,3.68,6.93l.69,1.29,0,0c44.43,78.86,128.9,132.16,225.86,132.16,143.11,0,259.12-116,259.12-259.12A258.57,258.57,0,0,0,1243.87,537.07Z"/></g></g></svg>